<svg xmlns="http://www.w3.org/2000/svg" viewBox="0 0 24 24" height="24" width="24">
  <path fill="context-fill" fill-opacity="context-fill-opacity" d="M9 3c1.1046 0 2 0.89543 2 2v3H9V6H4v13h5v-1h2v1c0 1.1046 -0.8954 2 -2 2H4c-1.10457 0 -2 -0.8954 -2 -2V5c0 -1.10457 0.89543 -2 2 -2zm11 0c1.1046 0 2 0.89543 2 2v14c0 1.1046 -0.8954 2 -2 2h-5c-1.1046 0 -2 -0.8954 -2 -2v-1h2v1h5V6h-5v2h-2V5c0 -1.10457 0.8954 -2 2 -2zm-5.457 7.043c0.3904 -0.39043 1.0235 -0.39035 1.414 0l2.25 2.25c0.3904 0.3905 0.3905 1.0235 0 1.414l-2.25 2.25c-0.3905 0.3905 -1.0235 0.3904 -1.414 0 -0.3904 -0.3905 -0.3905 -1.0236 0 -1.414l0.5429 -0.543H8.91406l0.54297 0.543c0.39039 0.3905 0.39043 1.0235 0 1.414 -0.39049 0.3905 -1.02354 0.3904 -1.41406 0l-2.25 -2.25c-0.39033 -0.3905 -0.39043 -1.0236 0 -1.414l2.25 -2.25c0.39047 -0.39043 1.02354 -0.39035 1.41406 0 0.39039 0.3905 0.39043 1.0235 0 1.414L8.91406 12h6.17184l-0.5429 -0.543c-0.3904 -0.3905 -0.3905 -1.0236 0 -1.414" stroke-width="1"></path>
</svg>