<svg xmlns="http://www.w3.org/2000/svg" fill="none" viewBox="0 0 24 24" height="24" width="24">
  <path fill="context-fill" fill-opacity="context-fill-opacity" d="M4.5 21c-0.4125 0 -0.765585 -0.1469 -1.05925 -0.44075C3.146915 20.2656 3 19.9125 3 19.5V4.5c0 -0.4125 0.146915 -0.765665 0.44075 -1.0595C3.734415 3.146835 4.0875 3 4.5 3h15c0.4125 0 0.76565 0.146835 1.0595 0.4405C20.85315 3.734335 21 4.0875 21 4.5v15c0 0.4125 -0.14685 0.7656 -0.4405 1.05925C20.26565 20.8531 19.9125 21 19.5 21H4.5Zm0 -1.5h15V6.5H4.5v13Zm7.501 -2.625c-1.334 0 -2.526 -0.3596 -3.576 -1.07875 -1.05 -0.71915 -1.81665 -1.6525 -2.3 -2.8 0.48335 -1.1475 1.24965 -2.0796 2.299 -2.79625s2.241 -1.075 3.575 -1.075 2.526 0.3596 3.576 1.07875c1.05 0.71915 1.81665 1.6525 2.3 2.8 -0.48335 1.1475 -1.24965 2.0796 -2.299 2.79625s-2.241 1.075 -3.575 1.075Zm-0.004 -2.625c-0.348 0 -0.64285 -0.12185 -0.8845 -0.3655 -0.24165 -0.24365 -0.3625 -0.5395 -0.3625 -0.8875s0.12185 -0.64285 0.3655 -0.8845c0.24365 -0.24165 0.5395 -0.3625 0.8875 -0.3625s0.64285 0.12185 0.8845 0.3655c0.24165 0.24365 0.3625 0.5395 0.3625 0.8875s-0.12185 0.64285 -0.3655 0.8845c-0.24365 0.24165 -0.5395 0.3625 -0.8875 0.3625ZM12 15c0.56 0 1.03335 -0.19335 1.42 -0.58 0.38665 -0.38665 0.58 -0.86 0.58 -1.42 0 -0.56 -0.19335 -1.03335 -0.58 -1.42C13.03335 11.19335 12.56 11 12 11c-0.56 0 -1.03335 0.19335 -1.42 0.58 -0.38665 0.38665 -0.58 0.86 -0.58 1.42 0 0.56 0.19335 1.03335 0.58 1.42 0.38665 0.38665 0.86 0.58 1.42 0.58Z" stroke-width="0.5"></path>
</svg>