<svg xmlns="http://www.w3.org/2000/svg" viewBox="0 0 24 24" id="Edit-Note-Fill--Streamline-Rounded-Fill-Material" height="24" width="24">
  <path fill="context-fill" fill-opacity="context-fill-opacity" d="M4.75 13.75c-0.2125 0 -0.390585 -0.07235 -0.53425 -0.217C4.071915 13.3885 4 13.20935 4 12.9955c0 -0.21365 0.071915 -0.39135 0.21575 -0.533 0.143665 -0.14165 0.32175 -0.2125 0.53425 -0.2125h6c0.2125 0 0.39065 0.07235 0.5345 0.217 0.14365 0.1445 0.2155 0.32365 0.2155 0.5375 0 0.21365 -0.07185 0.39135 -0.2155 0.533 -0.14385 0.14165 -0.322 0.2125 -0.5345 0.2125h-6Zm0 -4.125c-0.2125 0 -0.390585 -0.07235 -0.53425 -0.217C4.071915 9.2635 4 9.08435 4 8.8705c0 -0.21365 0.071915 -0.39135 0.21575 -0.533 0.143665 -0.14165 0.32175 -0.2125 0.53425 -0.2125H15c0.2125 0 0.39065 0.07235 0.5345 0.217 0.14365 0.1445 0.2155 0.32365 0.2155 0.5375 0 0.21365 -0.07185 0.39135 -0.2155 0.533 -0.14385 0.14165 -0.322 0.2125 -0.5345 0.2125H4.75Zm0 -4.125c-0.2125 0 -0.390585 -0.07235 -0.53425 -0.217C4.071915 5.1385 4 4.959335 4 4.7455c0 -0.213665 0.071915 -0.391335 0.21575 -0.533C4.359415 4.070835 4.5375 4 4.75 4H15c0.2125 0 0.39065 0.072335 0.5345 0.217 0.14365 0.1445 0.2155 0.323665 0.2155 0.5375 0 0.213665 -0.07185 0.39135 -0.2155 0.533 -0.14385 0.14165 -0.322 0.2125 -0.5345 0.2125H4.75ZM13 19.25v-2.025c0 -0.09285 0.01665 -0.18265 0.05 -0.2695 0.03335 -0.087 0.09165 -0.17215 0.175 -0.2555l5.29025 -5.26925c0.15185 -0.152 0.3206 -0.26185 0.50625 -0.3295 0.18565 -0.0675 0.37015 -0.10125 0.5535 -0.10125 0.2 0 0.39165 0.0375 0.575 0.1125 0.18335 0.075 0.35 0.1875 0.5 0.3375l0.925 0.925c0.15 0.15 0.25835 0.31665 0.325 0.5 0.06665 0.18335 0.1 0.36665 0.1 0.55 0 0.18335 -0.0375 0.37085 -0.1125 0.5625 -0.075 0.19165 -0.18815 0.3635 -0.3395 0.5155L16.3 19.775c-0.08335 0.08335 -0.1685 0.14165 -0.2555 0.175 -0.08685 0.03335 -0.17665 0.05 -0.2695 0.05H13.75c-0.2125 0 -0.3906 -0.0719 -0.53425 -0.21575C13.0719 19.6406 13 19.4625 13 19.25Zm6.575 -4.85L20.5 13.425 19.575 12.5l-0.95 0.95 0.95 0.95ZM14.5 18.5h0.95l3.025 -3.05 -0.45 -0.475 -0.475 -0.45L14.5 17.55V18.5Zm0 0v-0.95l3.05 -3.025 0.925 0.925L15.45 18.5H14.5Z" stroke-width="0.5"></path>
</svg>