<svg xmlns="http://www.w3.org/2000/svg" fill="context-fill" fill-opacity="context-fill-opacity" height="24" width="24" viewBox="0 0 24 24">
  <path d="M18.125 20v-3.375H14.75v-1.5h3.375V11.75h1.5v3.375H23v1.5h-3.375V20h-1.5ZM2.5 21c-0.4 0 -0.75 -0.15 -1.05 -0.45 -0.3 -0.3 -0.45 -0.65 -0.45 -1.05V4.125c0 -0.4 0.15 -0.75 0.45 -1.05 0.3 -0.3 0.65 -0.45 1.05 -0.45h15.375c0.4 0 0.75 0.15 1.05 0.45 0.3 0.3 0.45 0.65 0.45 1.05V10.25h-1.5v-2.625H2.5V19.5h14.125v1.5H2.5Z" stroke-width="0.5"></path>
</svg>