<svg xmlns="http://www.w3.org/2000/svg" fill="context-fill" fill-opacity="context-fill-opacity" height="24" width="24" viewBox="0 0 24 24">
  <path d="m12.275 12.35 -1.9 -1.9c-0.15 -0.15 -0.32585 -0.225 -0.5275 -0.225s-0.37585 0.075 -0.5225 0.225c-0.15 0.15 -0.225 0.325 -0.225 0.525s0.075 0.375 0.225 0.525l2.4 2.4c0.15 0.15 0.325 0.225 0.525 0.225s0.375 -0.075 0.525 -0.225l4.65 -4.65c0.15 -0.15 0.225 -0.32915 0.225 -0.5375 0 -0.20835 -0.07175 -0.37915 -0.21525 -0.5125 -0.1565 -0.13335 -0.3389 -0.19585 -0.54725 -0.1875 -0.20835 0.00835 -0.37915 0.07915 -0.5125 0.2125l-4.1 4.125ZM6.5 19c-0.4 0 -0.75 -0.15 -1.05 -0.45 -0.3 -0.3 -0.45 -0.65 -0.45 -1.05V3.5c0 -0.4 0.15 -0.75 0.45 -1.05 0.3 -0.3 0.65 -0.45 1.05 -0.45h14c0.4 0 0.75 0.15 1.05 0.45 0.3 0.3 0.45 0.65 0.45 1.05v14c0 0.4 -0.15 0.75 -0.45 1.05 -0.3 0.3 -0.65 0.45 -1.05 0.45H6.5Zm0 -1.5h14V3.5H6.5v14Zm-3 4.5c-0.4 0 -0.75 -0.15 -1.05 -0.45 -0.3 -0.3 -0.45 -0.65 -0.45 -1.05V5.75c0 -0.2125 0.072335 -0.39065 0.217 -0.5345 0.1445 -0.14365 0.323665 -0.2155 0.5375 -0.2155 0.213665 0 0.391335 0.07185 0.533 0.2155 0.141665 0.14385 0.2125 0.322 0.2125 0.5345V20.5h14.75c0.2125 0 0.39065 0.07235 0.5345 0.217 0.14365 0.1445 0.2155 0.32365 0.2155 0.5375 0 0.21365 -0.07185 0.39135 -0.2155 0.533 -0.14385 0.14165 -0.322 0.2125 -0.5345 0.2125H3.5Z" stroke-width="0.5"></path>
</svg>