<svg xmlns="http://www.w3.org/2000/svg" fill="context-fill" fill-opacity="context-fill-opacity" height="24" width="24" viewBox="0 0 24 24">
  <path fill="#000000" d="m14.07495 19.9004 5.475 -5.475c0.15 -0.15 0.325 -0.225 0.525 -0.225s0.375 0.075 0.525 0.225c0.15 0.15 0.225 0.325 0.225 0.525s-0.075 0.375 -0.225 0.525l-5.475 5.475c-0.15 0.15 -0.31665 0.2583 -0.5 0.325 -0.1833 0.06665 -0.36665 0.1 -0.55 0.1 -0.1833 0 -0.36665 -0.03335 -0.55 -0.1 -0.1833 -0.0667 -0.35 -0.175 -0.5 -0.325l-2.4 -2.4c-0.15 -0.15 -0.225 -0.325 -0.225 -0.525s0.075 -0.375 0.225 -0.525c0.15 -0.15 0.325 -0.225 0.525 -0.225s0.375 0.075 0.525 0.225l2.4 2.4Zm-8.125 -7.25 -1.17498 3.075c-0.05 0.15 -0.141665 0.26665 -0.275 0.35 -0.133335 0.0833 -0.275 0.125 -0.425 0.125 -0.266665 0 -0.470835 -0.10835 -0.6125 -0.325 -0.141665 -0.2167 -0.170835 -0.45 -0.0875 -0.7L7.79995 3.52539c0.0667 -0.15 0.1625 -0.270835 0.2875 -0.3625 0.125 -0.091665 0.27085 -0.1375 0.4375 -0.1375h0.6c0.1667 0 0.3125 0.045835 0.4375 0.1375 0.125 0.091665 0.22085 0.2125 0.2875 0.3625l4.4 11.62501c0.1 0.25 0.075 0.4875 -0.075 0.7125 -0.15 0.225 -0.36665 0.3375 -0.65 0.3375 -0.16665 0 -0.31665 -0.04585 -0.45 -0.1375 -0.1333 -0.0917 -0.2333 -0.2125 -0.3 -0.3625l-1.15 -3.05h-5.675Zm0.475 -1.45h4.725l-2.3 -6.35001h-0.125l-2.3 6.35001Z" stroke-width="0.5"></path>
</svg>